<mxfile host="app.diagrams.net" agent="Mozilla/5.0 (Windows NT 10.0; Win64; x64) AppleWebKit/537.36 (KHTML, like Gecko) Chrome/139.0.0.0 Safari/537.36" version="28.2.0">
  <diagram name="PÃ¡gina-1" id="BFSswboIu3FWUYJ5l5SM">
    <mxGraphModel dx="1105" dy="473" grid="1" gridSize="10" guides="1" tooltips="1" connect="1" arrows="1" fold="1" page="1" pageScale="1" pageWidth="827" pageHeight="1169" math="0" shadow="0">
      <root>
        <mxCell id="0" />
        <mxCell id="1" parent="0" />
        <mxCell id="JBDrbOeM-mZlc1VyKj9s-59" style="edgeStyle=none;shape=connector;rounded=0;orthogonalLoop=1;jettySize=auto;html=1;exitX=0.75;exitY=0;exitDx=0;exitDy=0;entryX=0.5;entryY=1;entryDx=0;entryDy=0;strokeColor=default;align=center;verticalAlign=middle;fontFamily=Helvetica;fontSize=11;fontColor=default;labelBackgroundColor=default;endArrow=none;" edge="1" parent="1" source="JBDrbOeM-mZlc1VyKj9s-1" target="JBDrbOeM-mZlc1VyKj9s-56">
          <mxGeometry relative="1" as="geometry" />
        </mxCell>
        <mxCell id="JBDrbOeM-mZlc1VyKj9s-60" style="edgeStyle=none;shape=connector;rounded=0;orthogonalLoop=1;jettySize=auto;html=1;exitX=0.75;exitY=0;exitDx=0;exitDy=0;entryX=0.5;entryY=1;entryDx=0;entryDy=0;strokeColor=default;align=center;verticalAlign=middle;fontFamily=Helvetica;fontSize=11;fontColor=default;labelBackgroundColor=default;endArrow=none;" edge="1" parent="1" source="JBDrbOeM-mZlc1VyKj9s-1" target="JBDrbOeM-mZlc1VyKj9s-58">
          <mxGeometry relative="1" as="geometry" />
        </mxCell>
        <mxCell id="JBDrbOeM-mZlc1VyKj9s-61" style="edgeStyle=none;shape=connector;rounded=0;orthogonalLoop=1;jettySize=auto;html=1;exitX=0.75;exitY=0;exitDx=0;exitDy=0;entryX=0.5;entryY=1;entryDx=0;entryDy=0;strokeColor=default;align=center;verticalAlign=middle;fontFamily=Helvetica;fontSize=11;fontColor=default;labelBackgroundColor=default;endArrow=none;" edge="1" parent="1" source="JBDrbOeM-mZlc1VyKj9s-1" target="JBDrbOeM-mZlc1VyKj9s-57">
          <mxGeometry relative="1" as="geometry" />
        </mxCell>
        <mxCell id="JBDrbOeM-mZlc1VyKj9s-1" value="Proveedor" style="whiteSpace=wrap;html=1;align=center;" vertex="1" parent="1">
          <mxGeometry x="100" y="120" width="100" height="40" as="geometry" />
        </mxCell>
        <mxCell id="JBDrbOeM-mZlc1VyKj9s-3" value="Cliente" style="whiteSpace=wrap;html=1;align=center;" vertex="1" parent="1">
          <mxGeometry x="466" y="257.5" width="110" height="40" as="geometry" />
        </mxCell>
        <mxCell id="JBDrbOeM-mZlc1VyKj9s-9" value="nombre" style="ellipse;whiteSpace=wrap;html=1;align=center;" vertex="1" parent="1">
          <mxGeometry x="576" y="172.5" width="75" height="30" as="geometry" />
        </mxCell>
        <mxCell id="JBDrbOeM-mZlc1VyKj9s-10" value="apellido" style="ellipse;whiteSpace=wrap;html=1;align=center;" vertex="1" parent="1">
          <mxGeometry x="687.5" y="197.5" width="87.5" height="35" as="geometry" />
        </mxCell>
        <mxCell id="JBDrbOeM-mZlc1VyKj9s-11" value="direccion" style="ellipse;whiteSpace=wrap;html=1;align=center;" vertex="1" parent="1">
          <mxGeometry x="700" y="295" width="75" height="30" as="geometry" />
        </mxCell>
        <mxCell id="JBDrbOeM-mZlc1VyKj9s-79" style="edgeStyle=none;shape=connector;rounded=0;orthogonalLoop=1;jettySize=auto;html=1;exitX=1;exitY=1;exitDx=0;exitDy=0;entryX=0.5;entryY=0;entryDx=0;entryDy=0;strokeColor=default;align=center;verticalAlign=middle;fontFamily=Helvetica;fontSize=11;fontColor=default;labelBackgroundColor=default;endArrow=none;" edge="1" parent="1" source="JBDrbOeM-mZlc1VyKj9s-12" target="JBDrbOeM-mZlc1VyKj9s-3">
          <mxGeometry relative="1" as="geometry" />
        </mxCell>
        <mxCell id="JBDrbOeM-mZlc1VyKj9s-12" value="clienteDni" style="ellipse;whiteSpace=wrap;html=1;align=center;fontStyle=4;" vertex="1" parent="1">
          <mxGeometry x="376" y="172.5" width="75" height="30" as="geometry" />
        </mxCell>
        <mxCell id="JBDrbOeM-mZlc1VyKj9s-13" value="fechaDeNacimiento" style="ellipse;whiteSpace=wrap;html=1;align=center;" vertex="1" parent="1">
          <mxGeometry x="690" y="237.5" width="120" height="40" as="geometry" />
        </mxCell>
        <mxCell id="JBDrbOeM-mZlc1VyKj9s-26" value="" style="endArrow=none;html=1;rounded=0;fontFamily=Helvetica;fontSize=12;fontColor=default;labelBackgroundColor=default;entryX=1;entryY=0.5;entryDx=0;entryDy=0;exitX=0;exitY=1;exitDx=0;exitDy=0;" edge="1" parent="1" source="JBDrbOeM-mZlc1VyKj9s-10" target="JBDrbOeM-mZlc1VyKj9s-3">
          <mxGeometry relative="1" as="geometry">
            <mxPoint x="436" y="217.5" as="sourcePoint" />
            <mxPoint x="596" y="217.5" as="targetPoint" />
          </mxGeometry>
        </mxCell>
        <mxCell id="JBDrbOeM-mZlc1VyKj9s-27" value="" style="endArrow=none;html=1;rounded=0;fontFamily=Helvetica;fontSize=12;fontColor=default;labelBackgroundColor=default;entryX=1;entryY=0.5;entryDx=0;entryDy=0;exitX=0;exitY=0.5;exitDx=0;exitDy=0;" edge="1" parent="1" source="JBDrbOeM-mZlc1VyKj9s-13" target="JBDrbOeM-mZlc1VyKj9s-3">
          <mxGeometry relative="1" as="geometry">
            <mxPoint x="636" y="287.5" as="sourcePoint" />
            <mxPoint x="666" y="313.5" as="targetPoint" />
          </mxGeometry>
        </mxCell>
        <mxCell id="JBDrbOeM-mZlc1VyKj9s-28" value="" style="endArrow=none;html=1;rounded=0;fontFamily=Helvetica;fontSize=12;fontColor=default;labelBackgroundColor=default;entryX=1;entryY=0.5;entryDx=0;entryDy=0;exitX=0;exitY=0.5;exitDx=0;exitDy=0;" edge="1" parent="1" source="JBDrbOeM-mZlc1VyKj9s-11" target="JBDrbOeM-mZlc1VyKj9s-3">
          <mxGeometry relative="1" as="geometry">
            <mxPoint x="634" y="337.5" as="sourcePoint" />
            <mxPoint x="546" y="343.5" as="targetPoint" />
          </mxGeometry>
        </mxCell>
        <mxCell id="JBDrbOeM-mZlc1VyKj9s-29" value="" style="endArrow=none;html=1;rounded=0;fontFamily=Helvetica;fontSize=12;fontColor=default;labelBackgroundColor=default;entryX=0.5;entryY=0;entryDx=0;entryDy=0;exitX=0.22;exitY=1;exitDx=0;exitDy=0;exitPerimeter=0;" edge="1" parent="1" source="JBDrbOeM-mZlc1VyKj9s-9" target="JBDrbOeM-mZlc1VyKj9s-3">
          <mxGeometry relative="1" as="geometry">
            <mxPoint x="643" y="367.5" as="sourcePoint" />
            <mxPoint x="556" y="317.5" as="targetPoint" />
          </mxGeometry>
        </mxCell>
        <mxCell id="JBDrbOeM-mZlc1VyKj9s-36" style="edgeStyle=none;shape=connector;rounded=0;orthogonalLoop=1;jettySize=auto;html=1;exitX=1;exitY=1;exitDx=0;exitDy=0;strokeColor=default;align=center;verticalAlign=middle;fontFamily=Helvetica;fontSize=11;fontColor=default;labelBackgroundColor=default;endArrow=none;" edge="1" parent="1">
          <mxGeometry relative="1" as="geometry">
            <mxPoint x="362" y="148.75" as="sourcePoint" />
            <mxPoint x="362" y="148.75" as="targetPoint" />
          </mxGeometry>
        </mxCell>
        <mxCell id="JBDrbOeM-mZlc1VyKj9s-41" value="edad" style="ellipse;whiteSpace=wrap;html=1;align=center;dashed=1;strokeColor=default;strokeWidth=1;verticalAlign=middle;spacingLeft=6;spacingTop=0;fontFamily=Helvetica;fontSize=11;fontColor=default;labelBackgroundColor=default;fillColor=default;" vertex="1" parent="1">
          <mxGeometry x="466" y="160" width="75" height="30" as="geometry" />
        </mxCell>
        <mxCell id="JBDrbOeM-mZlc1VyKj9s-42" value="" style="endArrow=none;html=1;rounded=0;fontFamily=Helvetica;fontSize=12;fontColor=default;labelBackgroundColor=default;entryX=0.5;entryY=0;entryDx=0;entryDy=0;exitX=0.5;exitY=1;exitDx=0;exitDy=0;" edge="1" parent="1" source="JBDrbOeM-mZlc1VyKj9s-41" target="JBDrbOeM-mZlc1VyKj9s-3">
          <mxGeometry relative="1" as="geometry">
            <mxPoint x="677" y="367.5" as="sourcePoint" />
            <mxPoint x="590" y="317.5" as="targetPoint" />
          </mxGeometry>
        </mxCell>
        <mxCell id="JBDrbOeM-mZlc1VyKj9s-46" value="Producto" style="whiteSpace=wrap;html=1;align=center;" vertex="1" parent="1">
          <mxGeometry x="96" y="260" width="110" height="40" as="geometry" />
        </mxCell>
        <mxCell id="JBDrbOeM-mZlc1VyKj9s-47" value="nombre" style="ellipse;whiteSpace=wrap;html=1;align=center;" vertex="1" parent="1">
          <mxGeometry x="141.25" y="330" width="81.25" height="32.5" as="geometry" />
        </mxCell>
        <mxCell id="JBDrbOeM-mZlc1VyKj9s-48" value="precio" style="ellipse;whiteSpace=wrap;html=1;align=center;" vertex="1" parent="1">
          <mxGeometry x="46" y="330" width="81.25" height="32.5" as="geometry" />
        </mxCell>
        <mxCell id="JBDrbOeM-mZlc1VyKj9s-50" value="" style="endArrow=none;html=1;rounded=0;fontFamily=Helvetica;fontSize=12;fontColor=default;labelBackgroundColor=default;entryX=0.5;entryY=1;entryDx=0;entryDy=0;exitX=0.22;exitY=0.15;exitDx=0;exitDy=0;exitPerimeter=0;" edge="1" parent="1" source="JBDrbOeM-mZlc1VyKj9s-47" target="JBDrbOeM-mZlc1VyKj9s-46">
          <mxGeometry relative="1" as="geometry">
            <mxPoint x="116" y="212.5" as="sourcePoint" />
            <mxPoint x="276" y="212.5" as="targetPoint" />
          </mxGeometry>
        </mxCell>
        <mxCell id="JBDrbOeM-mZlc1VyKj9s-52" value="" style="endArrow=none;html=1;rounded=0;fontFamily=Helvetica;fontSize=12;fontColor=default;labelBackgroundColor=default;entryX=0.5;entryY=1;entryDx=0;entryDy=0;exitX=0.5;exitY=0;exitDx=0;exitDy=0;" edge="1" parent="1" source="JBDrbOeM-mZlc1VyKj9s-48" target="JBDrbOeM-mZlc1VyKj9s-46">
          <mxGeometry relative="1" as="geometry">
            <mxPoint x="314" y="332.5" as="sourcePoint" />
            <mxPoint x="226" y="338.5" as="targetPoint" />
          </mxGeometry>
        </mxCell>
        <mxCell id="JBDrbOeM-mZlc1VyKj9s-56" value="nombre" style="ellipse;whiteSpace=wrap;html=1;align=center;" vertex="1" parent="1">
          <mxGeometry x="147.5" y="42.5" width="75" height="30" as="geometry" />
        </mxCell>
        <mxCell id="JBDrbOeM-mZlc1VyKj9s-57" value="direccion" style="ellipse;whiteSpace=wrap;html=1;align=center;" vertex="1" parent="1">
          <mxGeometry x="240" y="42.5" width="75" height="30" as="geometry" />
        </mxCell>
        <mxCell id="JBDrbOeM-mZlc1VyKj9s-58" value="dni" style="ellipse;whiteSpace=wrap;html=1;align=center;fontStyle=4;" vertex="1" parent="1">
          <mxGeometry x="80" y="42.5" width="60" height="30" as="geometry" />
        </mxCell>
        <mxCell id="JBDrbOeM-mZlc1VyKj9s-64" value="" style="endArrow=none;html=1;rounded=0;exitX=0.5;exitY=1;exitDx=0;exitDy=0;entryX=0.5;entryY=0;entryDx=0;entryDy=0;" edge="1" parent="1" source="JBDrbOeM-mZlc1VyKj9s-65" target="JBDrbOeM-mZlc1VyKj9s-46">
          <mxGeometry relative="1" as="geometry">
            <mxPoint x="270" y="152" as="sourcePoint" />
            <mxPoint x="389" y="150" as="targetPoint" />
          </mxGeometry>
        </mxCell>
        <mxCell id="JBDrbOeM-mZlc1VyKj9s-66" value="" style="endArrow=none;html=1;rounded=0;exitX=0.5;exitY=1;exitDx=0;exitDy=0;entryX=0.5;entryY=0;entryDx=0;entryDy=0;" edge="1" parent="1" source="JBDrbOeM-mZlc1VyKj9s-1" target="JBDrbOeM-mZlc1VyKj9s-65">
          <mxGeometry relative="1" as="geometry">
            <mxPoint x="150" y="160" as="sourcePoint" />
            <mxPoint x="151" y="238" as="targetPoint" />
          </mxGeometry>
        </mxCell>
        <mxCell id="JBDrbOeM-mZlc1VyKj9s-65" value="Provee" style="shape=rhombus;perimeter=rhombusPerimeter;whiteSpace=wrap;html=1;align=center;dashed=0;strokeColor=default;strokeWidth=1;verticalAlign=middle;spacingLeft=6;spacingTop=0;fontFamily=Helvetica;fontSize=11;fontColor=default;labelBackgroundColor=default;fillColor=default;" vertex="1" parent="1">
          <mxGeometry x="122.5" y="187.5" width="55" height="40" as="geometry" />
        </mxCell>
        <mxCell id="JBDrbOeM-mZlc1VyKj9s-67" value="N" style="text;strokeColor=none;fillColor=none;spacingLeft=4;spacingRight=4;overflow=hidden;rotatable=0;points=[[0,0.5],[1,0.5]];portConstraint=eastwest;fontSize=11;whiteSpace=wrap;html=1;fontFamily=Helvetica;fontColor=default;labelBackgroundColor=default;" vertex="1" parent="1">
          <mxGeometry x="147.5" y="157.5" width="40" height="30" as="geometry" />
        </mxCell>
        <mxCell id="JBDrbOeM-mZlc1VyKj9s-69" value="1" style="text;strokeColor=none;fillColor=none;spacingLeft=4;spacingRight=4;overflow=hidden;rotatable=0;points=[[0,0.5],[1,0.5]];portConstraint=eastwest;fontSize=11;whiteSpace=wrap;html=1;fontFamily=Helvetica;fontColor=default;labelBackgroundColor=default;" vertex="1" parent="1">
          <mxGeometry x="147.5" y="240" width="40" height="30" as="geometry" />
        </mxCell>
        <mxCell id="JBDrbOeM-mZlc1VyKj9s-70" value="" style="endArrow=none;html=1;rounded=0;exitX=0;exitY=0.5;exitDx=0;exitDy=0;entryX=1;entryY=0.5;entryDx=0;entryDy=0;" edge="1" parent="1" source="JBDrbOeM-mZlc1VyKj9s-3" target="JBDrbOeM-mZlc1VyKj9s-46">
          <mxGeometry relative="1" as="geometry">
            <mxPoint x="180" y="230" as="sourcePoint" />
            <mxPoint x="181" y="262" as="targetPoint" />
          </mxGeometry>
        </mxCell>
        <mxCell id="JBDrbOeM-mZlc1VyKj9s-71" value="compra" style="shape=rhombus;perimeter=rhombusPerimeter;whiteSpace=wrap;html=1;align=center;dashed=0;strokeColor=default;strokeWidth=1;verticalAlign=middle;spacingLeft=6;spacingTop=0;fontFamily=Helvetica;fontSize=11;fontColor=default;labelBackgroundColor=default;fillColor=default;" vertex="1" parent="1">
          <mxGeometry x="303.25" y="260" width="55" height="40" as="geometry" />
        </mxCell>
        <mxCell id="JBDrbOeM-mZlc1VyKj9s-72" value="N" style="text;strokeColor=none;fillColor=none;spacingLeft=4;spacingRight=4;overflow=hidden;rotatable=0;points=[[0,0.5],[1,0.5]];portConstraint=eastwest;fontSize=11;whiteSpace=wrap;html=1;fontFamily=Helvetica;fontColor=default;labelBackgroundColor=default;" vertex="1" parent="1">
          <mxGeometry x="443.5" y="277.5" width="40" height="30" as="geometry" />
        </mxCell>
        <mxCell id="JBDrbOeM-mZlc1VyKj9s-73" value="N" style="text;strokeColor=none;fillColor=none;spacingLeft=4;spacingRight=4;overflow=hidden;rotatable=0;points=[[0,0.5],[1,0.5]];portConstraint=eastwest;fontSize=11;whiteSpace=wrap;html=1;fontFamily=Helvetica;fontColor=default;labelBackgroundColor=default;" vertex="1" parent="1">
          <mxGeometry x="206" y="277.5" width="40" height="30" as="geometry" />
        </mxCell>
        <mxCell id="JBDrbOeM-mZlc1VyKj9s-78" style="edgeStyle=none;shape=connector;rounded=0;orthogonalLoop=1;jettySize=auto;html=1;exitX=0;exitY=0;exitDx=0;exitDy=0;strokeColor=default;align=center;verticalAlign=middle;fontFamily=Helvetica;fontSize=11;fontColor=default;labelBackgroundColor=default;endArrow=none;" edge="1" parent="1" source="JBDrbOeM-mZlc1VyKj9s-77">
          <mxGeometry relative="1" as="geometry">
            <mxPoint x="150" y="300" as="targetPoint" />
          </mxGeometry>
        </mxCell>
        <mxCell id="JBDrbOeM-mZlc1VyKj9s-77" value="idProducto" style="ellipse;whiteSpace=wrap;html=1;align=center;fontStyle=4;" vertex="1" parent="1">
          <mxGeometry x="230" y="330" width="81.25" height="32.5" as="geometry" />
        </mxCell>
      </root>
    </mxGraphModel>
  </diagram>
</mxfile>
